<?xml version="1.0" standalone="no"?>
<svg xmlns:xlink="http://www.w3.org/1999/xlink" id="wave" style="transform:rotate(180deg); transition: 0.3s" viewBox="0 0 1440 130" version="1.1" xmlns="http://www.w3.org/2000/svg"><defs><linearGradient id="sw-gradient-0" x1="0" x2="0" y1="1" y2="0"><stop stop-color="rgba(158, 206, 255, 1)" offset="0%"/><stop stop-color="rgba(158, 206, 255, 1)" offset="100%"/></linearGradient></defs><path style="transform:translate(0, 0px); opacity:1" fill="url(#sw-gradient-0)" d="M0,78L16,65C32,52,64,26,96,26C128,26,160,52,192,71.5C224,91,256,104,288,99.7C320,95,352,74,384,73.7C416,74,448,95,480,97.5C512,100,544,82,576,65C608,48,640,30,672,19.5C704,9,736,4,768,17.3C800,30,832,61,864,78C896,95,928,100,960,91C992,82,1024,61,1056,45.5C1088,30,1120,22,1152,17.3C1184,13,1216,13,1248,30.3C1280,48,1312,82,1344,91C1376,100,1408,82,1440,80.2C1472,78,1504,91,1536,88.8C1568,87,1600,69,1632,69.3C1664,69,1696,87,1728,91C1760,95,1792,87,1824,75.8C1856,65,1888,52,1920,45.5C1952,39,1984,39,2016,49.8C2048,61,2080,82,2112,86.7C2144,91,2176,78,2208,71.5C2240,65,2272,65,2288,65L2304,65L2304,130L2288,130C2272,130,2240,130,2208,130C2176,130,2144,130,2112,130C2080,130,2048,130,2016,130C1984,130,1952,130,1920,130C1888,130,1856,130,1824,130C1792,130,1760,130,1728,130C1696,130,1664,130,1632,130C1600,130,1568,130,1536,130C1504,130,1472,130,1440,130C1408,130,1376,130,1344,130C1312,130,1280,130,1248,130C1216,130,1184,130,1152,130C1120,130,1088,130,1056,130C1024,130,992,130,960,130C928,130,896,130,864,130C832,130,800,130,768,130C736,130,704,130,672,130C640,130,608,130,576,130C544,130,512,130,480,130C448,130,416,130,384,130C352,130,320,130,288,130C256,130,224,130,192,130C160,130,128,130,96,130C64,130,32,130,16,130L0,130Z"/></svg>