<?xml version="1.0" standalone="no"?>
<svg xmlns:xlink="http://www.w3.org/1999/xlink" id="wave" style="transform:rotate(180deg); transition: 0.3s" viewBox="0 0 1440 100" version="1.1" xmlns="http://www.w3.org/2000/svg"><defs><linearGradient id="sw-gradient-0" x1="0" x2="0" y1="1" y2="0"><stop stop-color="rgba(158, 206, 255, 1)" offset="0%"/><stop stop-color="rgba(158, 206, 255, 1)" offset="100%"/></linearGradient></defs><path style="transform:translate(0, 0px); opacity:1" fill="url(#sw-gradient-0)" d="M0,50L21.8,45C43.6,40,87,30,131,26.7C174.5,23,218,27,262,38.3C305.5,50,349,70,393,78.3C436.4,87,480,83,524,68.3C567.3,53,611,27,655,13.3C698.2,0,742,0,785,3.3C829.1,7,873,13,916,26.7C960,40,1004,60,1047,66.7C1090.9,73,1135,67,1178,55C1221.8,43,1265,27,1309,25C1352.7,23,1396,37,1440,43.3C1483.6,50,1527,50,1571,51.7C1614.5,53,1658,57,1702,58.3C1745.5,60,1789,60,1833,61.7C1876.4,63,1920,67,1964,65C2007.3,63,2051,57,2095,53.3C2138.2,50,2182,50,2225,55C2269.1,60,2313,70,2356,65C2400,60,2444,40,2487,30C2530.9,20,2575,20,2618,26.7C2661.8,33,2705,47,2749,58.3C2792.7,70,2836,80,2880,85C2923.6,90,2967,90,3011,85C3054.5,80,3098,70,3120,65L3141.8,60L3141.8,100L3120,100C3098.2,100,3055,100,3011,100C2967.3,100,2924,100,2880,100C2836.4,100,2793,100,2749,100C2705.5,100,2662,100,2618,100C2574.5,100,2531,100,2487,100C2443.6,100,2400,100,2356,100C2312.7,100,2269,100,2225,100C2181.8,100,2138,100,2095,100C2050.9,100,2007,100,1964,100C1920,100,1876,100,1833,100C1789.1,100,1745,100,1702,100C1658.2,100,1615,100,1571,100C1527.3,100,1484,100,1440,100C1396.4,100,1353,100,1309,100C1265.5,100,1222,100,1178,100C1134.5,100,1091,100,1047,100C1003.6,100,960,100,916,100C872.7,100,829,100,785,100C741.8,100,698,100,655,100C610.9,100,567,100,524,100C480,100,436,100,393,100C349.1,100,305,100,262,100C218.2,100,175,100,131,100C87.3,100,44,100,22,100L0,100Z"/></svg>